<?xml version="1.0" standalone="no"?>
<!DOCTYPE svg PUBLIC "-//W3C//DTD SVG 1.1//EN" "http://www.w3.org/Graphics/SVG/1.1/DTD/svg11.dtd" >
<svg xmlns="http://www.w3.org/2000/svg">
<metadata></metadata>
<defs>
<font id="MyriadWebProCondensedRegular" horiz-adv-x="925" >
<font-face units-per-em="2048" ascent="1638" descent="-410" />
<missing-glyph horiz-adv-x="376" />
<glyph horiz-adv-x="0" />
<glyph horiz-adv-x="2048" />
<glyph unicode="&#xd;" horiz-adv-x="376" />
<glyph unicode=" "  horiz-adv-x="376" />
<glyph unicode="&#x09;" horiz-adv-x="376" />
<glyph unicode="&#xa0;" horiz-adv-x="376" />
<glyph unicode="!" horiz-adv-x="448" d="M111 103q0 53 32.5 88.5t82.5 35.5t82 -35t32 -89.5t-31 -87.5t-82.5 -33t-83.5 34t-32 87zM127 1380h192l-24 -985h-143z" />
<glyph unicode="&#x22;" horiz-adv-x="667" d="M100 1407h168l-32 -487h-103zM399 1407h168l-32 -487h-103z" />
<glyph unicode="#" horiz-adv-x="909" d="M59 403v119h168l39 299h-160v117h177l51 393h117l-52 -393h185l53 393h115l-52 -393h150v-117h-166l-39 -299h160v-116h-176l-51 -406h-119l53 406h-184l-52 -406h-118l53 403h-152zM344 522h184l39 299h-184z" />
<glyph unicode="$" d="M117 111l45 137q121 -78 235.5 -78t173 55.5t58.5 140t-47.5 143.5t-185.5 125q-267 128 -267 333q0 121 73 210t201 115v203h125v-192q133 -3 232 -64l-45 -135q-101 61 -205 61t-156.5 -50.5t-52.5 -126t48.5 -123t183.5 -113.5t201.5 -154.5t66.5 -215.5t-76 -220.5 t-211 -120.5v-215h-125v205q-155 5 -272 80z" />
<glyph unicode="%" horiz-adv-x="1478" d="M61 940.5q0 184.5 81.5 297t208.5 112.5t203.5 -107.5t76.5 -299t-83 -297t-205.5 -105.5t-202 107.5t-79.5 292zM201 943q0 -134 39 -215t109 -81t108.5 79t38.5 218.5t-38 219t-108.5 79.5t-109.5 -83t-39 -217zM309 -27l746 1383h110l-745 -1383h-111zM848 389 q0 185 81.5 296.5t209 111.5t203 -106.5t75.5 -296t-81.5 -299t-205.5 -109.5t-203 109t-79 294zM987 392.5q0 -133.5 39.5 -217t109.5 -83.5t108 81t38 220t-38 218t-108.5 79t-109.5 -82t-39 -215.5z" />
<glyph unicode="&#x26;" horiz-adv-x="1130" d="M61 365q0 242 240 399l2 6q-109 150 -108.5 292t89 239.5t220 97.5t210.5 -79.5t79 -202t-66.5 -210.5t-202.5 -168v-6q131 -177 293 -381q79 143 107 396h159q-46 -331 -178 -504l205 -244h-205l-108 129q-145 -147 -334 -147t-295.5 110t-106.5 273zM231 389 q0 -116 69 -194t177 -78q144 0 238 119q-218 272 -336 428q-147 -117 -148 -275zM358.5 1062.5q0.5 -103.5 90.5 -228.5q190 124 190 266q0 77 -35.5 125.5t-101 48.5t-105 -54t-39 -157.5z" />
<glyph unicode="'" horiz-adv-x="368" d="M100 1407h168l-32 -487h-103z" />
<glyph unicode="(" horiz-adv-x="552" d="M125 587q0 491 244 832h137q-233 -344 -233.5 -828t233.5 -837h-137q-244 342 -244 833z" />
<glyph unicode=")" horiz-adv-x="552" d="M47 -246q233 351 233.5 834.5t-233.5 830.5h137q244 -337 244 -829t-244 -836h-137z" />
<glyph unicode="*" horiz-adv-x="811" d="M55 979v137l285 -39l2 6l-182 244l119 68l124 -275h5l118 279l121 -68l-186 -252v-4l295 41v-137l-295 37v-6l188 -240l-125 -72l-121 281l-4 -2l-127 -283l-114 72l186 248v4z" />
<glyph unicode="+" horiz-adv-x="1220" d="M82 487v121h465v482h127v-482h465v-121h-465v-487h-127v487h-465z" />
<glyph unicode="," horiz-adv-x="415" d="M33 -256q81 233 123 489l196 21q-93 -317 -196 -496z" />
<glyph unicode="-" horiz-adv-x="600" d="M61 479v131h478v-131h-478z" />
<glyph unicode="." horiz-adv-x="415" d="M104 109q0 56 33.5 92.5t84.5 36.5t83.5 -35.5t32.5 -92.5t-32.5 -92.5t-83.5 -35.5t-84.5 35.5t-33.5 91.5z" />
<glyph unicode="/" horiz-adv-x="638" d="M6 -82l502 1481h133l-504 -1481h-131z" />
<glyph unicode="0" d="M63 666q0 325 110.5 504.5t297.5 179.5t289 -177t102 -505.5t-107 -507t-293.5 -178.5t-292.5 179.5t-106 504.5zM240 664.5q0 -255.5 58 -397.5t164.5 -142t163 139.5t56.5 397t-54.5 401t-161 143.5t-166.5 -143t-60 -398.5z" />
<glyph unicode="1" d="M170 1171l289 160h147v-1331h-172v1161h-4l-227 -125z" />
<glyph unicode="2" d="M80 0v111q263 306 346 407q199 246 199 438q0 112 -55 179t-172.5 67t-233.5 -92l-49 127q137 113 315 113t274.5 -104t96.5 -273q0 -222 -195 -473q-82 -104 -291 -344v-4h514v-152h-749z" />
<glyph unicode="3" d="M72 57l41 138q116 -68 242 -68t196 70t70 188.5t-84.5 190t-219.5 71.5h-69v133h65q104 0 185.5 61.5t81.5 158.5t-53 150.5t-154.5 53.5t-212.5 -74l-41 130q126 90 290.5 90t256.5 -88t92 -226q0 -102 -57.5 -184t-163.5 -127v-4q123 -30 193.5 -121.5t70.5 -222.5 q0 -171 -120 -283t-303 -112.5t-306 75.5z" />
<glyph unicode="4" d="M35 362v117l508 852h184v-829h164v-140h-164v-362h-164v362h-528zM207 502h356v403q0 103 10 236h-8q-88 -187 -110 -226l-248 -409v-4z" />
<glyph unicode="5" d="M72 51l41 137q113 -61 234 -61t201.5 80.5t80.5 217t-88 212.5t-252 76q-85 0 -146 -11l86 629h559v-151h-430l-51 -338q33 6 78 6q173 0 296.5 -108.5t123.5 -304.5t-127.5 -324.5t-311 -128.5t-294.5 69z" />
<glyph unicode="6" d="M63 537q0 364 192.5 588.5t502.5 224.5v-146q-213 0 -346.5 -128.5t-167.5 -348.5h6q102 137 263 137t257 -114.5t96 -309.5t-107.5 -326.5t-289 -131.5t-294 151.5t-112.5 403.5zM240 500q0 -179 64 -281t166 -102t160 84t58 228t-59.5 223t-155.5 79t-164.5 -69 t-68.5 -162z" />
<glyph unicode="7" d="M96 1180v151h748v-112l-504 -1219h-178l497 1176v4h-563z" />
<glyph unicode="8" d="M68 332q0 237 237 368l-2 7q-93 52 -142.5 131.5t-49.5 167.5q0 154 105 249t260 95t248 -93t93 -227q0 -199 -196 -311v-6q238 -126 237 -353q0 -166 -112.5 -272t-287.5 -106t-282.5 101.5t-107.5 248.5zM246 348.5q0 -100.5 59.5 -169t158.5 -68.5t159.5 63.5 t60.5 171.5q0 198 -238 293q-96 -41 -148 -115.5t-52 -175zM285 1018q-1 -167 204 -246q164 80 164 240q0 95 -47.5 153t-132.5 58t-136.5 -57.5t-51.5 -147.5z" />
<glyph unicode="9" d="M72 895.5q0 184.5 113.5 319.5t289.5 135t280.5 -149.5t104.5 -399.5q0 -371 -184 -595t-508 -224v147q438 0 514 481h-4q-102 -125 -258 -125t-252 113t-96 297.5zM248 907.5q0 -138.5 57 -214t144.5 -75.5t160 53.5t72.5 149.5q0 188 -58.5 290.5t-157.5 102.5 t-158.5 -84t-59.5 -222.5z" />
<glyph unicode=":" horiz-adv-x="415" d="M102 106.5q0 54.5 33.5 90.5t83.5 36t82.5 -35.5t32.5 -91t-32.5 -90t-83.5 -34.5t-83.5 35t-32.5 89.5zM104 838q0 55 33 91t83.5 36t83 -35.5t32.5 -91t-32.5 -90.5t-83.5 -35t-83.5 35t-32.5 90z" />
<glyph unicode=";" horiz-adv-x="415" d="M33 -256q81 233 123 489l194 21q-93 -317 -196 -496zM123 838q0 55 33 91t84 36q50 0 82 -35.5t32 -91t-32 -90.5t-83 -35t-83.5 35t-32.5 90z" />
<glyph unicode="&#x3c;" horiz-adv-x="1220" d="M133 492v106l952 492v-144l-792 -399v-4l792 -400v-143z" />
<glyph unicode="=" horiz-adv-x="1220" d="M82 293v121h1057v-121h-1057zM82 688v121h1057v-121h-1057z" />
<glyph unicode="&#x3e;" horiz-adv-x="1220" d="M133 0v143l811 400v4l-811 399v144l954 -484v-123z" />
<glyph unicode="?" horiz-adv-x="737" d="M94 1337q110 68 257 68t231 -82t84 -211q0 -65 -26.5 -138t-102 -176.5t-98 -152.5t-29.5 -91t-7 -122l3 -43h-156q-7 66 -7 92q0 163 98 302t120 196t22 122.5t-46 109.5t-138 44t-162 -51zM207 105.5q0 54.5 32.5 90t84.5 35.5q51 0 82.5 -35t31.5 -90t-32 -89.5 t-83 -34.5t-83.5 34.5t-32.5 89z" />
<glyph unicode="@" horiz-adv-x="1363" d="M80 594q0 338 200 573.5t500 235.5q230 0 371 -151.5t141 -396t-95.5 -389t-244.5 -144.5q-137 0 -137 170h-6q-97 -170 -256 -170q-86 0 -140.5 65.5t-54.5 175.5q0 199 132 350.5t331 151.5q101 0 183 -37q-76 -401 -82 -434.5t-6 -73.5q0 -104 65 -104 q80 0 143.5 117.5t63.5 321.5t-111.5 332t-312.5 128q-240 0 -409 -202.5t-169 -514.5q0 -250 129.5 -390t346.5 -140q151 -1 280 69l29 -82q-141 -80 -334 -80q-243 0 -400 168.5t-157 450.5zM489 575.5q0 -147.5 109 -147.5q69 0 133.5 81t83.5 179l51 262q-28 12 -78 13 q-120 0 -209.5 -120t-89.5 -267.5z" />
<glyph unicode="A" horiz-adv-x="1077" d="M47 0l391 1380h205l387 -1380h-182l-117 418h-393l-115 -418h-176zM369 557h333q-104 377 -120 452l-43 199h-7q-43 -218 -61 -282z" />
<glyph unicode="B" horiz-adv-x="989" d="M139 4v1356q117 29 283 29q230 0 339 -93t109 -245q0 -101 -57.5 -183t-163.5 -123v-6q126 -33 198.5 -125.5t72.5 -222.5q0 -173 -122.5 -287t-412.5 -114q-126 0 -246 14zM315 135q35 -8 113 -8q143 0 225 69t82 199.5t-89 199.5t-224 69h-107v-529zM315 797h115 q116 0 190 66.5t74 171.5t-66.5 161.5t-193.5 56.5q-78 0 -119 -10v-446z" />
<glyph unicode="C" horiz-adv-x="978" d="M70 681q0 332 169 524t437 192q158 0 252 -47l-41 -146q-88 43 -207 43q-193 0 -309.5 -147t-116.5 -416t113.5 -408t308.5 -139q121 0 217 41l31 -143q-104 -51 -281 -51q-263 0 -418 182.5t-155 514.5z" />
<glyph unicode="D" horiz-adv-x="1142" d="M139 4v1356q135 29 299 29q327 0 481 -176.5t154 -489.5q0 -362 -171.5 -547.5t-510.5 -185.5q-132 0 -252 14zM315 139q30 -6 117 -6q224 0 340.5 147.5t116.5 419.5q0 547 -436 547q-72 0 -138 -12v-1096z" />
<glyph unicode="E" horiz-adv-x="872" d="M139 0v1380h641v-149h-465v-436h439v-148h-439v-497h494v-150h-670z" />
<glyph unicode="F" horiz-adv-x="858" d="M139 0v1380h639v-149h-463v-463h430v-147h-430v-621h-176z" />
<glyph unicode="G" horiz-adv-x="1112" d="M70 692q0 327 178.5 514t456.5 187q163 0 274 -52l-41 -147q-97 47 -233 47q-207 0 -329 -144.5t-122 -409t113.5 -408.5t310.5 -144q106 0 162 25v424h-224v143h394v-678q-167 -61 -338 -61q-296 0 -449 188.5t-153 515.5z" />
<glyph unicode="H" horiz-adv-x="1148" d="M139 0v1380h176v-583h519v583h176v-1380h-176v641h-519v-641h-176z" />
<glyph unicode="I" horiz-adv-x="454" d="M139 0v1380h176v-1380h-176z" />
<glyph unicode="J" horiz-adv-x="655" d="M6 4l21 146q60 -16 114 -17q121 0 167 72t46 227v948h176v-954q0 -224 -91 -334t-283 -110q-79 0 -150 22z" />
<glyph unicode="K" horiz-adv-x="976" d="M139 0v1380h176v-657h7l59 99q35 58 125 193l244 365h206l-415 -587l440 -793h-201l-360 666l-105 -142v-524h-176z" />
<glyph unicode="L" horiz-adv-x="839" d="M139 0v1380h176v-1230h488v-150h-664z" />
<glyph unicode="M" horiz-adv-x="1441" d="M102 0l91 1380h208q221 -733 252 -841.5t70 -268.5q52 241 115 445l204 665h213l82 -1380h-168q-49 885 -55 1159q-39 -178 -344 -1149h-123q-216 715 -252.5 847t-77.5 302q-2 -164 -16 -448l-35 -711h-164z" />
<glyph unicode="N" horiz-adv-x="1155" d="M139 0v1380h180l343 -663q117 -224 210 -463h5q-20 278 -21 602v524h162v-1380h-172l-344 672q-139 270 -211 465h-4q14 -243 14 -615v-522h-162z" />
<glyph unicode="O" horiz-adv-x="1165" d="M70 685.5q0 325.5 144.5 519.5t376.5 194t368.5 -189t136.5 -520.5t-141.5 -519.5t-375 -188t-371.5 189t-138 514.5zM252 690.5q0 -243.5 89 -402.5t241 -159t239.5 157.5t87.5 403t-87.5 403.5t-240.5 158t-241 -158.5t-88 -402z" />
<glyph unicode="P" horiz-adv-x="960" d="M139 0v1362q139 27 291 27q231 0 346 -106.5t115 -306.5t-133 -313.5t-338 -113.5q-63 0 -105 8v-557h-176zM315 700q35 -10 103 -10q139 0 218 76.5t79 208t-72 202t-203 70.5q-71 0 -125 -12v-535z" />
<glyph unicode="Q" horiz-adv-x="1165" d="M70 686.5q0 328.5 144.5 520.5t377 192t368.5 -189t136 -508q0 -255 -80.5 -423.5t-231.5 -229.5v-8q169 -54 334 -92l-57 -144q-180 55 -326.5 116t-167.5 61q-224 5 -360.5 190.5t-136.5 514zM254 689q0 -244 89 -402t241 -158t239.5 158.5t87.5 404t-86.5 402.5 t-239 157t-242 -159t-89.5 -403z" />
<glyph unicode="R" horiz-adv-x="976" d="M139 0v1360q127 29 289 29q241 0 352 -101t111 -274q0 -253 -240 -352v-5q142 -46 193 -292q62 -300 92 -365h-180q-29 58 -82 336q-27 141 -82.5 200.5t-165.5 59.5h-111v-596h-176zM315 729h121q125 0 201 72.5t76 191.5q0 256 -271 256q-89 0 -127 -12v-508z" />
<glyph unicode="S" horiz-adv-x="878" d="M72 57l41 148q122 -72 250.5 -72t197 62.5t68.5 158.5t-51.5 161t-169.5 122q-311 152 -312 389q0 162 114 266.5t279 104.5t267 -60l-43 -145q-94 55 -206.5 55t-173.5 -57.5t-61 -144.5t53.5 -142.5t196.5 -129.5t213 -169.5t70 -226.5q0 -175 -119.5 -284t-307.5 -109 q-1 0 -2 -1q-186 0 -304 74z" />
<glyph unicode="T" horiz-adv-x="876" d="M16 1227v153h846v-153h-336v-1227h-176v1227h-334z" />
<glyph unicode="U" horiz-adv-x="1136" d="M137 518v862h176v-868q0 -187 65.5 -284t186.5 -97q258 0 258 381v868h176v-850q0 -269 -114 -408.5t-323.5 -139.5t-317 135.5t-107.5 400.5z" />
<glyph unicode="V" horiz-adv-x="1009" d="M18 1380h191l187 -718q71 -269 106 -461h6q31 183 106 461l195 718h188l-405 -1380h-191z" />
<glyph unicode="W" horiz-adv-x="1540" d="M35 1380h184q205 -993 221 -1161h6q20 160 73 388l177 773h166q156 -714 185 -858.5t49 -300.5h4q13 145 233 1159h178l-327 -1380h-180q-163 746 -186.5 864t-43.5 271h-4q-25 -177 -90 -455l-162 -680h-178z" />
<glyph unicode="X" horiz-adv-x="989" d="M39 0l350 702l-338 678h195q247 -523 252 -544h6q14 50 244 544h192l-344 -671l356 -709h-194l-269 569h-6q-11 -32 -98 -226l-154 -343h-192z" />
<glyph unicode="Y" horiz-adv-x="962" d="M20 1380h195q239 -549 272 -657h5q35 115 272 657h192l-389 -792v-588h-176v582z" />
<glyph unicode="Z" horiz-adv-x="935" d="M49 0v102l615 1123v6h-562v149h777v-112l-609 -1112v-6h613v-150h-834z" />
<glyph unicode="[" horiz-adv-x="552" d="M158 -229v1634h344v-115h-205v-1405h205v-114h-344z" />
<glyph unicode="\" horiz-adv-x="641" d="M2 1399h133l500 -1481h-133z" />
<glyph unicode="]" horiz-adv-x="552" d="M53 -115h203v1405h-203v115h342v-1634h-342v114z" />
<glyph unicode="^" horiz-adv-x="1220" d="M125 385l424 946h123l424 -946h-144l-340 791h-6l-340 -791h-141z" />
<glyph unicode="_" horiz-adv-x="1024" d="M0 -154h1024v-102h-1024v102z" />
<glyph unicode="`" horiz-adv-x="614" d="M61 1395h185l168 -287h-121z" />
<glyph unicode="a" horiz-adv-x="874" d="M61 266q0 179 138 272t372 93v24q0 221 -190 222q-118 0 -213 -64l-39 121q120 76 285 76q334 0 334 -381v-398q0 -154 12 -231h-158l-14 115h-4q-90 -133 -252 -133q-121 0 -196 80.5t-75 203.5zM277 157.5q41 -42.5 113.5 -42.5t128.5 61.5t56 147.5v184 q-339 0 -339 -222q0 -86 41 -128.5z" />
<glyph unicode="b" horiz-adv-x="997" d="M119 0q8 133 8 250v1186h176v-582h4q88 156 273 156q154 0 250 -137t96 -373t-108 -377t-275.5 -141t-255.5 163h-6l-11 -145h-151zM303 375q0 -103 61.5 -176.5t160.5 -73.5t161 100.5t62 269.5t-62 269t-158.5 100t-160.5 -76.5t-64 -187.5v-225z" />
<glyph unicode="c" horiz-adv-x="770" d="M72 486q0 231 128 377.5t337 146.5q112 0 194 -41l-35 -140q-74 37 -161 37q-130 0 -207.5 -105.5t-77.5 -270.5t78.5 -264t206.5 -99q89 0 165 37l27 -133q-90 -47 -225 -47q-196 0 -313 135.5t-117 366.5z" />
<glyph unicode="d" horiz-adv-x="991" d="M72 492.5q0 233.5 107 375.5t270 142t233 -131h4v557h176v-1186q0 -117 8 -250h-155l-10 147h-5q-86 -165 -270 -165h-2q-157 0 -256.5 138.5t-99.5 372zM250 496q0 -164 59 -266.5t160.5 -102.5t159 79t57.5 177v217q0 118 -58 192t-156.5 74t-160 -103t-61.5 -267z" />
<glyph unicode="e" horiz-adv-x="890" d="M72 484.5q0 232.5 111.5 379t285 146.5t264 -127t90.5 -326q0 -55 -6 -88h-573q1 -171 74.5 -258.5t204 -87.5t222.5 43l31 -127q-114 -55 -276 -55q-199 0 -313.5 134t-114.5 366.5zM246 596h407q0 135 -51.5 209t-140 74t-146.5 -78t-69 -205z" />
<glyph unicode="f" horiz-adv-x="540" d="M25 858v133h131v53q0 273 158 366q74 44 159.5 44t147.5 -27l-25 -135q-44 18 -100 19q-164 0 -164 -262v-58h209v-133h-209v-858h-176v858h-131z" />
<glyph unicode="g" horiz-adv-x="985" d="M72 505.5q0 230.5 113 367.5t274 137t239 -148h4l9 129h155q-8 -135 -8 -293v-563q0 -216 -45 -327t-147.5 -169.5t-255 -58.5t-265.5 66l41 137q109 -61 240 -62q258 0 258 320v102h-4q-76 -141 -241.5 -141t-266 136.5t-100.5 367zM250 499.5q0 -166.5 62 -262.5 t160.5 -96t155 72t56.5 180v232q0 92 -55.5 166.5t-153.5 74.5t-161.5 -100t-63.5 -266.5z" />
<glyph unicode="h" horiz-adv-x="989" d="M129 0v1436h176v-574h4q97 147 264 148q127 0 208 -100.5t81 -288.5v-621h-176v602q0 260 -178 260q-86 0 -144.5 -71.5t-58.5 -172.5v-618h-176z" />
<glyph unicode="i" horiz-adv-x="434" d="M104 1281.5q0 50.5 32 84t80.5 33.5t80 -33t31.5 -84.5t-31 -84t-80.5 -32.5t-81 33t-31.5 83.5zM129 0v991h176v-991h-176z" />
<glyph unicode="j" horiz-adv-x="448" d="M-76 -283q81 9 132.5 44t71 110.5t19.5 261.5v858h177v-915q0 -225 -56 -322t-146.5 -135.5t-176.5 -40.5zM123 1282.5q0 50.5 31.5 83.5t81.5 33q49 0 79.5 -33t30.5 -84t-31 -84t-80.5 -33t-80.5 33.5t-31 84z" />
<glyph unicode="k" horiz-adv-x="851" d="M127 0v1436h176v-899h4q37 66 57 93l250 361h203l-319 -411l358 -580h-207l-272 467l-74 -96v-371h-176z" />
<glyph unicode="l" horiz-adv-x="434" d="M129 0v1436h176v-1436h-176z" />
<glyph unicode="m" horiz-adv-x="1495" d="M121 991h153l11 -139h4q93 158 269.5 158t240.5 -172h4q102 172 282 172q127 0 205 -100.5t78 -291.5v-618h-174v588q0 276 -172 276q-73 0 -129.5 -63t-56.5 -176v-625h-174v621q0 117 -43.5 180t-123.5 63t-136 -70.5t-56 -181.5v-612h-174v727q0 105 -8 264z" />
<glyph unicode="n" horiz-adv-x="989" d="M121 991h155l9 -141h4q92 160 278 160q131 0 213 -99t82 -284v-627h-176v602q0 260 -180 260q-85 0 -143 -70.5t-58 -183.5v-608h-176v727q0 105 -8 264z" />
<glyph unicode="o" horiz-adv-x="960" d="M72 498q0 243 118 377.5t297.5 134.5t289.5 -137t110 -371q0 -163 -53 -280.5t-149 -178.5t-210 -61q-180 0 -291.5 136.5t-111.5 379.5zM248 497q0 -163 63 -271.5t166 -108.5t166.5 110t63.5 270t-60 268.5t-169 108.5t-169.5 -107t-60.5 -270z" />
<glyph unicode="p" horiz-adv-x="997" d="M119 991h157l9 -147h4q94 166 280 166q157 0 256 -138.5t99 -375.5t-107.5 -375.5t-269 -138.5t-240.5 133h-4v-514h-176v1075q0 157 -8 315zM303 385q0 -115 60 -187.5t159.5 -72.5t161 101t61.5 269t-61 268.5t-157 100.5t-160 -77t-64 -191v-211z" />
<glyph unicode="q" horiz-adv-x="989" d="M72 490.5q0 234.5 110.5 377t275 142.5t240.5 -150h4l7 131h163q-8 -147 -8 -293v-1097h-176v526h-6q-81 -145 -245 -145t-264.5 137t-100.5 371.5zM250 492.5q0 -167.5 61 -267.5t161 -100t158 77.5t58 182.5v219q0 116 -61 188t-144 72q-108 0 -170.5 -102 t-62.5 -269.5z" />
<glyph unicode="r" horiz-adv-x="595" d="M119 991h155l9 -174h6q31 89 97.5 141t141.5 52l43 -2v-174q-11 4 -47 4q-91 0 -156 -76t-65 -225v-537h-176v707q0 120 -8 284z" />
<glyph unicode="s" horiz-adv-x="706" d="M61 45l41 133q100 -61 190.5 -61t134.5 38t44 100.5t-34.5 104t-119.5 82.5q-233 116 -233 283q0 124 87 204.5t214.5 80.5t222.5 -56l-45 -129q-78 51 -156 51q-1 0 -2 1q-77 -1 -115 -37t-38 -89.5t31.5 -88t124.5 -80.5q231 -113 231 -301q0 -139 -91.5 -218 t-239.5 -79t-247 61z" />
<glyph unicode="t" horiz-adv-x="606" d="M31 858v133h137v176l174 62v-238h223v-133h-223v-553q0 -176 119 -176q47 0 84 10l8 -135q-55 -20 -156 -20t-165 69t-64 254v551h-137z" />
<glyph unicode="u" horiz-adv-x="976" d="M123 389v602h176v-573q0 -289 174 -289q81 0 140 64t59 169v629h176v-719q0 -124 8 -272h-156l-10 133h-4q-97 -151 -268 -151h-2q-140 0 -216.5 103.5t-76.5 303.5z" />
<glyph unicode="v" horiz-adv-x="856" d="M25 991h186q206 -714 219 -798h4q17 96 217 798h180l-323 -991h-166z" />
<glyph unicode="w" horiz-adv-x="1337" d="M31 991h182q170 -749 174 -805h6q13 98 209 805h143q182 -669 203 -805h6q5 84 179 805h176l-285 -991h-154q-139 506 -159 584.5t-41 195.5h-4q-26 -150 -70 -302l-139 -478h-156z" />
<glyph unicode="x" horiz-adv-x="829" d="M18 0l293 502l-280 489h192q138 -249 197 -375h4q31 74 192 375h187l-285 -483l289 -508h-197q-164 309 -200 391h-7q-26 -63 -196 -391h-189z" />
<glyph unicode="y" horiz-adv-x="843" d="M23 991h190q177 -584 221 -774h4l205 774h182l-232 -723q-85 -262 -157 -402q-128 -248 -323 -308l-54 149q123 52 202 167t79 163q0 10 -10 41z" />
<glyph unicode="z" horiz-adv-x="763" d="M35 0v106l269 420q118 185 159.5 244t50.5 74v4h-440v143h647v-112q-431 -671 -475 -732v-4h479v-143h-690z" />
<glyph unicode="{" horiz-adv-x="552" d="M57 537v106q152 0 152 148q0 72 -14 173.5t-15 174.5q0 129 74 197.5t207 68.5h35v-113h-35q-139 0 -139 -164q0 -66 13 -145.5t13 -157.5q0 -194 -145 -233v-4q145 -34 145 -234q0 -39 -13 -134.5t-13 -170.5q0 -166 141 -166h33v-112h-37q-133 0 -206 69.5t-73 202.5 q0 74 15 174q14 100 14 172q0 148 -152 148z" />
<glyph unicode="|" horiz-adv-x="454" d="M158 -512v2048h137v-2048h-137z" />
<glyph unicode="}" horiz-adv-x="552" d="M55 -117h33q141 0 141 166q0 49 -12 149.5t-12 155.5q0 200 145 234v4q-145 40 -145 233q0 53 12 152q12 98 12 151q0 164 -139 164h-35v113h35q133 0 207 -68.5t74 -197.5q0 -87 -13 -176q-14 -134 -14 -172q0 -148 152 -148v-106q-152 0 -152 -148q0 -86 13 -179 t14 -167q0 -141 -77 -206.5t-202 -65.5h-37v112z" />
<glyph unicode="~" horiz-adv-x="1220" d="M123 438q0 156 67.5 226.5t169.5 70.5q51 0 109 -17.5t195.5 -87t209.5 -69.5q102 0 103 166h121q0 -174 -65.5 -236.5t-143 -62.5t-138 19.5t-169 74t-152.5 68.5t-76 14q-107 0 -110 -166h-121z" />
<glyph unicode="&#xa1;" horiz-adv-x="448" d="M111 884q0 53 32.5 88.5t82.5 35.5t82 -35t32 -89t-30.5 -88t-82.5 -34t-84 34.5t-32 87.5zM129 -393l25 983h143l25 -983h-193z" />
<glyph unicode="&#xa2;" d="M131 657q0 200 92.5 334.5t255.5 165.5v199h125v-191q104 -4 178 -43l-34 -137q-72 43 -184.5 43t-184.5 -103.5t-72 -260.5t74 -252t181 -95t202 41l24 -129q-77 -43 -184 -49v-200h-125v202q-165 24 -256.5 149.5t-91.5 325.5z" />
<glyph unicode="&#xa3;" d="M88 0v106q93 45 153 145.5t60 200t-10 158.5h-187v127h168q-25 135 -24 226q0 174 101 280.5t257 106.5q117 0 193 -45l-37 -138q-62 37 -154 37t-142 -62.5t-50 -164.5t24 -240h254v-127h-237q6 -58 6 -106q0 -216 -148 -350v-4h533v-150h-760z" />
<glyph unicode="&#xa4;" d="M27 1067l88 92l135 -153q87 84 213.5 84t214.5 -82l137 151l88 -90l-155 -149q59 -104 59 -242t-59 -246l149 -151l-86 -91l-135 156q-86 -86 -215 -86t-215 82l-129 -152l-88 91l147 147q-63 102 -63 242.5t65 249.5zM262 674q0 -129 59 -207t143 -78t141 77.5t57 206 t-54.5 208.5t-145 80t-145.5 -79t-55 -208z" />
<glyph unicode="&#xa5;" d="M29 1331h184q219 -508 248 -600h4q39 123 71 194l181 406h178l-313 -612h243v-101h-290v-149h290v-100h-290v-369h-166v369h-287v100h287v149h-287v101h242z" />
<glyph unicode="&#xa6;" horiz-adv-x="454" d="M158 356h137v-716h-137v716zM158 664v716h137v-716h-137z" />
<glyph unicode="&#xa7;" horiz-adv-x="946" d="M90 698q0 137 148 240q-74 70 -74 170q0 134 102.5 211.5t249 77t252.5 -59.5l-41 -116q-93 57 -196 57t-158.5 -40t-55.5 -101t39.5 -103.5t205.5 -103t230 -136.5t64 -182q0 -147 -129 -250q74 -70 74 -176q0 -141 -103 -223t-273 -82t-282 78l45 119 q115 -76 228.5 -76t171 43t57.5 114.5t-50.5 118t-214 111.5t-227 138.5t-63.5 170.5zM231 721q0 -111 189 -184q156 -61 217 -107q78 55 78 158q0 120 -160 184q-190 79 -231 107q-92 -62 -93 -158z" />
<glyph unicode="&#xa8;" horiz-adv-x="614" d="M37 1238q0 42 28 70.5t69 28.5t68 -28.5t27 -70.5t-26.5 -70.5t-68 -28.5t-69.5 28.5t-28 70.5zM383 1238q0 42 28 70.5t69 28.5t68 -28.5t27 -70.5t-27 -70.5t-68 -28.5t-69 28.5t-28 70.5z" />
<glyph unicode="&#xa9;" horiz-adv-x="1386" d="M70 695.5q0 262.5 182 447t442 184.5t441.5 -185t181.5 -448t-180.5 -448t-441 -185t-443 186t-182.5 448.5zM176 693q0 -230 151.5 -388t369 -158t367.5 159.5t150 388.5t-150.5 387.5t-368 158.5t-368.5 -159t-151 -389zM354 688q0 166 115.5 271.5t270 105.5 t231.5 -53l-25 -84q-91 47 -212.5 47t-196 -77t-74.5 -205.5t77 -209t202 -80.5t212 52l25 -80q-99 -61 -259.5 -61.5t-263 104t-102.5 270.5z" />
<glyph unicode="&#xaa;" horiz-adv-x="636" d="M63 737q0 97 94.5 160.5t270.5 63.5v22q0 47 -31.5 85t-111.5 38t-146 -47l-30 86q90 61 207 61t178 -68.5t61 -197.5v-242q0 -97 10 -155h-114l-11 78h-4q-69 -88 -167 -88.5t-152 53.5t-54 151zM190 735q0 -48 30.5 -76t83 -28t89.5 43.5t37 73.5v122q-240 0 -240 -135 z" />
<glyph unicode="&#xab;" horiz-adv-x="796" d="M53 516l240 369h141l-241 -369l241 -366h-141zM371 516l239 369h142l-242 -369l242 -366h-142z" />
<glyph unicode="&#xac;" horiz-adv-x="1220" d="M82 698v121h1057v-573h-127v452h-930z" />
<glyph unicode="&#xad;" horiz-adv-x="600" d="M61 479v131h478v-131h-478z" />
<glyph unicode="&#xae;" horiz-adv-x="1044" d="M63 937q0 190 136 326t325.5 136t323 -135.5t133.5 -327.5t-132.5 -326.5t-323.5 -134.5t-326.5 136t-135.5 326zM154 937q0 -161 109 -275.5t262.5 -114.5t261.5 114t108 275.5t-108.5 276t-261.5 114.5t-262 -114.5t-109 -275.5zM354 670v512q98 14 148 14 q207 0 207 -147q0 -91 -101 -123v-4q71 -12 86 -125q14 -90 33 -127h-88q-19 27 -35 133q-14 88 -110 88h-56v-221h-84zM438 956h58q125 0 125 87t-123 87l-60 -2v-172z" />
<glyph unicode="&#xaf;" horiz-adv-x="614" d="M92 1188v106h434v-106h-434z" />
<glyph unicode="&#xb0;" horiz-adv-x="614" d="M57 1132q0 113 77.5 192t189.5 79t186 -77.5t74 -190t-79 -190t-189 -77.5t-184.5 75.5t-74.5 188.5zM166 1133q0 -73 45 -122.5t111.5 -49.5t111.5 50t45 123.5t-43.5 125t-112 51.5t-113 -53t-44.5 -125z" />
<glyph unicode="&#xb1;" horiz-adv-x="1220" d="M82 0v121h1057v-121h-1057zM82 649v121h465v395h127v-395h465v-121h-465v-407h-127v407h-465z" />
<glyph unicode="&#xb2;" horiz-adv-x="647" d="M76 543v71q243 249 294.5 334t51.5 150t-36 101t-106.5 36t-148.5 -59l-39 96q94 78 219.5 78t191.5 -63t66 -151.5t-43.5 -167.5t-137.5 -178l-120 -128v-5h314v-114h-506z" />
<glyph unicode="&#xb3;" horiz-adv-x="636" d="M66 584l32 100q79 -45 160 -45t124.5 38.5t43.5 103t-53.5 103t-143.5 38.5h-36v94h34q68 0 121 34t53 86t-31 79.5t-96 27.5t-141 -47l-31 94q93 59 205.5 59.5t174 -53t61.5 -137.5q0 -124 -144 -182v-4q78 -14 125 -69.5t47 -143.5t-81.5 -158t-211 -70t-212.5 52z " />
<glyph unicode="&#xb4;" horiz-adv-x="614" d="M215 1108l168 287h184l-231 -287h-121z" />
<glyph unicode="&#xb5;" horiz-adv-x="976" d="M123 -399v1390h176v-575q0 -285 178 -285q82 0 138.5 66t56.5 139v655h176v-719q0 -124 8 -272h-156l-10 135h-4q-85 -150 -242 -149q-113 0 -159 84h-6l8 -469h-164z" />
<glyph unicode="&#xb6;" horiz-adv-x="937" d="M63 947q0 130 59 229q123 206 456 206q137 0 215 -14v-1470h-119v1368h-135v-1368h-119v653h-14q-126 0 -234.5 109t-108.5 287z" />
<glyph unicode="&#xb7;" horiz-adv-x="415" d="M92 558.5q0 54.5 34 91t84.5 36.5t83 -35.5t32.5 -91t-33 -91.5t-83.5 -36t-84 36t-33.5 90.5z" />
<glyph unicode="&#xb8;" horiz-adv-x="614" d="M127 -373l33 88q49 -31 106 -30q80 0 80 61q0 74 -149 88l88 174h108l-63 -110q61 -8 100 -48t39 -107.5t-55.5 -110t-140.5 -42.5t-146 37z" />
<glyph unicode="&#xb9;" horiz-adv-x="616" d="M109 1247l194 94h121v-798h-139v674h-4l-148 -76z" />
<glyph unicode="&#xba;" horiz-adv-x="675" d="M53 866.5q0 153.5 82.5 246.5t209 93t201.5 -89.5t75 -247.5t-81 -247.5t-205 -89.5t-203 90.5t-79 244zM188 869q0 -98 42.5 -167t110 -69t108 67t40.5 169t-39.5 169.5t-110.5 67.5t-111 -69.5t-40 -167.5z" />
<glyph unicode="&#xbb;" horiz-adv-x="796" d="M43 150l244 366l-244 369h139l242 -369l-238 -366h-143zM360 150l242 366l-242 369h140l241 -369l-239 -366h-142z" />
<glyph unicode="&#xbc;" horiz-adv-x="1413" d="M77 1247l194 94h121v-798h-139v674h-4l-148 -76zM256 -18l738 1368h110l-737 -1368h-111zM749 212v78l344 516h144v-494h108v-100h-108v-213h-131v213h-357zM884 316l3 -4h219v219q0 70 8 139h-6q-56 -109 -66 -121z" />
<glyph unicode="&#xbd;" horiz-adv-x="1413" d="M44 1247l194 94h121v-798h-139v674h-4l-148 -76zM211 -18l738 1368h110l-737 -1368h-111zM821 -1v71q243 249 294.5 334t51.5 150t-36 101t-106.5 36t-148.5 -59l-39 96q94 78 219.5 78t191.5 -63t66 -151.5t-43.5 -167.5t-137.5 -178l-120 -128v-5h314v-114h-506z" />
<glyph unicode="&#xbe;" horiz-adv-x="1413" d="M59 584l32 100q79 -45 160 -45t124.5 38.5t43.5 103t-53.5 103t-143.5 38.5h-36v94h34q68 0 121 34t53 86t-31 79.5t-96 27.5t-141 -47l-31 94q93 59 205.5 59.5t174 -53t61.5 -137.5q0 -124 -144 -182v-4q78 -14 125 -69.5t47 -143.5t-81.5 -158t-211 -70t-212.5 52z M309 -18l738 1368h110l-737 -1368h-111zM766 212v78l344 516h144v-494h108v-100h-108v-213h-131v213h-357zM901 316l3 -4h219v219q0 70 8 139h-6q-56 -109 -66 -121z" />
<glyph unicode="&#xbf;" horiz-adv-x="737" d="M84 -125q0 66 28.5 142t137.5 225q77 108 88 196q6 40 6 117l-2 43h156q7 -66 7 -92q0 -163 -98 -301.5t-119.5 -195t-21.5 -123t45.5 -110.5t134.5 -44t164 51l43 -133q-110 -68 -256 -68t-229.5 82t-83.5 211zM307 883.5q0 54.5 32.5 89.5t83.5 35t83.5 -35t32.5 -89.5 t-32 -90t-83 -35.5t-84 35.5t-33 90z" />
<glyph unicode="&#xc0;" horiz-adv-x="1077" d="M47 0l391 1380h205l387 -1380h-182l-117 418h-393l-115 -418h-176zM240 1722h200l199 -235h-135zM369 557h333q-104 377 -120 452l-43 199h-7q-43 -218 -61 -282z" />
<glyph unicode="&#xc1;" horiz-adv-x="1077" d="M47 0l391 1380h205l387 -1380h-182l-117 418h-393l-115 -418h-176zM369 557h333q-104 377 -120 452l-43 199h-7q-43 -218 -61 -282zM477 1485l197 237h205l-264 -237h-138z" />
<glyph unicode="&#xc2;" horiz-adv-x="1077" d="M47 0l391 1380h205l387 -1380h-182l-117 418h-393l-115 -418h-176zM296 1485l191 237h123l194 -237h-141l-111 149h-4l-112 -149h-140zM369 557h333q-104 377 -120 452l-43 199h-7q-43 -218 -61 -282z" />
<glyph unicode="&#xc3;" horiz-adv-x="1077" d="M47 0l391 1380h205l387 -1380h-182l-117 418h-393l-115 -418h-176zM308 1499q0 103 36.5 148.5t87.5 45.5t113.5 -37.5t92.5 -37.5t42 20t15 60h90q0 -188 -135 -189q-50 0 -113 37q-62 37 -86 37q-42 0 -51 -84h-92zM369 557h333q-104 377 -120 452l-43 199h-7 q-43 -218 -61 -282z" />
<glyph unicode="&#xc4;" horiz-adv-x="1077" d="M47 0l391 1380h205l387 -1380h-182l-117 418h-393l-115 -418h-176zM276 1609.5q0 42.5 27.5 71.5t68 29t67.5 -28.5t27 -72t-26 -72t-67.5 -28.5t-69 29t-27.5 71.5zM369 557h333q-104 377 -120 452l-43 199h-7q-43 -218 -61 -282zM626 1609.5q0 42.5 27 71.5t67.5 29 t68.5 -28.5t28 -72t-26.5 -72t-68 -28.5t-69 29t-27.5 71.5z" />
<glyph unicode="&#xc5;" horiz-adv-x="1077" d="M47 0l387 1364q-98 41 -98 147q0 78 58 132.5t151.5 54.5t150 -52.5t56.5 -132.5q0 -108 -103 -151l381 -1362h-182l-117 418h-393l-115 -418h-176zM369 557h333q-104 377 -120 452l-43 199h-7q-43 -217 -61 -282zM442 1513.5q0 -47.5 28.5 -78t74 -30.5t73 30.5t27.5 79 t-27.5 78t-74.5 29.5t-74 -30.5t-27 -78z" />
<glyph unicode="&#xc6;" horiz-adv-x="1384" d="M6 0l522 1380h754v-149h-481l37 -443h432v-147h-414l45 -491h434v-150h-587l-46 465h-348l-170 -465h-178zM403 606h283l-51 649h-8q-59 -194 -82 -256z" />
<glyph unicode="&#xc7;" horiz-adv-x="978" d="M70 698.5q0 314.5 169 506.5t437 192q159 0 250 -47l-39 -146q-88 43 -207 43q-194 0 -310 -147t-116 -416.5t114.5 -409t309.5 -139.5q121 0 215 43l33 -145q-99 -46 -273 -49l-47 -84q61 -11 99 -52.5t38 -107t-55 -108t-138.5 -42.5t-148.5 37l33 88q49 -31 107 -30 q80 0 80 63q0 72 -150 86l80 156q-230 35 -355.5 214.5t-125.5 494z" />
<glyph unicode="&#xc8;" horiz-adv-x="872" d="M139 0v1380h641v-149h-465v-436h439v-148h-439v-497h494v-150h-670zM181 1722h200l199 -235h-135z" />
<glyph unicode="&#xc9;" horiz-adv-x="872" d="M139 0v1380h641v-149h-465v-436h439v-148h-439v-497h494v-150h-670zM386 1485l197 237h205l-264 -237h-138z" />
<glyph unicode="&#xca;" horiz-adv-x="872" d="M139 0v1380h641v-149h-465v-436h439v-148h-439v-497h494v-150h-670zM208 1485l191 237h123l194 -237h-141l-111 149h-4l-112 -149h-140z" />
<glyph unicode="&#xcb;" horiz-adv-x="872" d="M139 0v1380h641v-149h-465v-436h439v-148h-439v-497h494v-150h-670zM196 1609.5q0 42.5 27.5 71.5t68 29t67.5 -28.5t27 -72t-26 -72t-67.5 -28.5t-69 29t-27.5 71.5zM546 1609.5q0 42.5 27 71.5t67.5 29t68.5 -28.5t28 -72t-26.5 -72t-68 -28.5t-69 29t-27.5 71.5z" />
<glyph unicode="&#xcc;" horiz-adv-x="454" d="M-70 1722h200l199 -235h-135zM139 0v1380h176v-1380h-176z" />
<glyph unicode="&#xcd;" horiz-adv-x="454" d="M139 0v1380h176v-1380h-176zM149 1485l197 237h205l-264 -237h-138z" />
<glyph unicode="&#xce;" horiz-adv-x="454" d="M-22 1485l191 237h123l194 -237h-141l-111 149h-4l-112 -149h-140zM141 0v1380h176v-1380h-176z" />
<glyph unicode="&#xcf;" horiz-adv-x="454" d="M-40 1609.5q0 42.5 27.5 71.5t68 29t67.5 -28.5t27 -72t-26 -72t-67.5 -28.5t-69 29t-27.5 71.5zM139 0v1380h176v-1380h-176zM310 1609.5q0 42.5 27 71.5t67.5 29t68.5 -28.5t28 -72t-26.5 -72t-68 -28.5t-69 29t-27.5 71.5z" />
<glyph unicode="&#xd0;" horiz-adv-x="1157" d="M-2 643v135h154v584q135 29 299 29q330 0 483 -177t153 -493q0 -735 -684 -735q-132 0 -251 14v643h-154zM328 135q31 -6 116 -6q225 0 342 149.5t117 425t-111.5 410.5t-324.5 135q-74 0 -139 -12v-459h284v-135h-284v-508z" />
<glyph unicode="&#xd1;" horiz-adv-x="1155" d="M139 0v1380h180l343 -663q117 -224 210 -463h5q-20 278 -21 602v524h162v-1380h-172l-344 672q-139 270 -211 465h-4q14 -243 14 -615v-522h-162zM353 1489q0 103 36.5 148.5t87.5 45.5t113.5 -37.5t92.5 -37.5t42 20t15 60h90q0 -188 -135 -189q-50 0 -113 37 q-62 37 -86 37q-42 0 -51 -84h-92z" />
<glyph unicode="&#xd2;" horiz-adv-x="1165" d="M70 685.5q0 325.5 144.5 519.5t376.5 194t368.5 -189t136.5 -520.5t-141.5 -519.5t-375 -188t-371.5 189t-138 514.5zM252 690.5q0 -243.5 89 -402.5t241 -159t239.5 157.5t87.5 403t-87.5 403.5t-240.5 158t-241 -158.5t-88 -402zM284 1722h200l199 -235h-135z" />
<glyph unicode="&#xd3;" horiz-adv-x="1165" d="M70 685.5q0 325.5 144.5 519.5t376.5 194t368.5 -189t136.5 -520.5t-141.5 -519.5t-375 -188t-371.5 189t-138 514.5zM252 690.5q0 -243.5 89 -402.5t241 -159t239.5 157.5t87.5 403t-87.5 403.5t-240.5 158t-241 -158.5t-88 -402zM524 1485l197 237h205l-264 -237h-138z " />
<glyph unicode="&#xd4;" horiz-adv-x="1165" d="M70 685.5q0 325.5 144.5 519.5t376.5 194t368.5 -189t136.5 -520.5t-141.5 -519.5t-375 -188t-371.5 189t-138 514.5zM252 690.5q0 -243.5 89 -402.5t241 -159t239.5 157.5t87.5 403t-87.5 403.5t-240.5 158t-241 -158.5t-88 -402zM328 1485l191 237h123l194 -237h-141 l-111 149h-4l-112 -149h-140z" />
<glyph unicode="&#xd5;" horiz-adv-x="1165" d="M70 685.5q0 325.5 144.5 519.5t376.5 194t368.5 -189t136.5 -520.5t-141.5 -519.5t-375 -188t-371.5 189t-138 514.5zM252 690.5q0 -243.5 89 -402.5t241 -159t239.5 157.5t87.5 403t-87.5 403.5t-240.5 158t-241 -158.5t-88 -402zM345 1498q0 103 36.5 148.5t87.5 45.5 t113.5 -37.5t92.5 -37.5t42 20t15 60h90q0 -188 -135 -189q-50 0 -113 37q-62 37 -86 37q-42 0 -51 -84h-92z" />
<glyph unicode="&#xd6;" horiz-adv-x="1165" d="M70 685.5q0 325.5 144.5 519.5t376.5 194t368.5 -189t136.5 -520.5t-141.5 -519.5t-375 -188t-371.5 189t-138 514.5zM252 690.5q0 -243.5 89 -402.5t241 -159t239.5 157.5t87.5 403t-87.5 403.5t-240.5 158t-241 -158.5t-88 -402zM312 1609.5q0 42.5 27.5 71.5t68 29 t67.5 -28.5t27 -72t-26 -72t-67.5 -28.5t-69 29t-27.5 71.5zM662 1609.5q0 42.5 27 71.5t67.5 29t68.5 -28.5t28 -72t-26.5 -72t-68 -28.5t-69 29t-27.5 71.5z" />
<glyph unicode="&#xd7;" horiz-adv-x="1220" d="M82 90l440 449l-440 448l86 90l442 -450l443 450l86 -90l-443 -448l441 -449l-86 -90l-441 451l-442 -451z" />
<glyph unicode="&#xd8;" horiz-adv-x="1165" d="M70 687.5q0 326.5 144 519t374 192.5q157 0 272 -94l92 153l105 -59l-105 -180q143 -196 143.5 -533.5t-144.5 -520.5t-367 -183q-163 0 -279 100l-98 -164l-96 64l104 186q-145 193 -145 519.5zM246 718.5q0 -216.5 65 -374.5h4l467 817q-87 90 -196 90 q-157 0 -248.5 -158t-91.5 -374.5zM383 227q77 -98 201 -98q155 0 245.5 158t90.5 380t-64 369h-6z" />
<glyph unicode="&#xd9;" horiz-adv-x="1136" d="M137 518v862h176v-868q0 -187 65.5 -284t186.5 -97q258 0 258 381v868h176v-850q0 -269 -114 -408.5t-323.5 -139.5t-317 135.5t-107.5 400.5zM291 1692h200l199 -235h-135z" />
<glyph unicode="&#xda;" horiz-adv-x="1136" d="M137 518v862h176v-868q0 -187 65.5 -284t186.5 -97q258 0 258 381v868h176v-850q0 -269 -114 -408.5t-323.5 -139.5t-317 135.5t-107.5 400.5zM494 1516l197 237h205l-264 -237h-138z" />
<glyph unicode="&#xdb;" horiz-adv-x="1136" d="M137 518v862h176v-868q0 -187 65.5 -284t186.5 -97q258 0 258 381v868h176v-850q0 -269 -114 -408.5t-323.5 -139.5t-317 135.5t-107.5 400.5zM324 1516l191 237h123l194 -237h-141l-111 149h-4l-112 -149h-140z" />
<glyph unicode="&#xdc;" horiz-adv-x="1136" d="M137 518v862h176v-868q0 -187 65.5 -284t186.5 -97q258 0 258 381v868h176v-850q0 -269 -114 -408.5t-323.5 -139.5t-317 135.5t-107.5 400.5zM300 1609.5q0 42.5 27.5 71.5t68 29t67.5 -28.5t27 -72t-26 -72t-67.5 -28.5t-69 29t-27.5 71.5zM650 1609.5q0 42.5 27 71.5 t67.5 29t68.5 -28.5t28 -72t-26.5 -72t-68 -28.5t-69 29t-27.5 71.5z" />
<glyph unicode="&#xdd;" horiz-adv-x="962" d="M20 1380h195q239 -549 272 -657h5q35 115 272 657h192l-389 -792v-588h-176v582zM429 1485l197 237h205l-264 -237h-138z" />
<glyph unicode="&#xde;" horiz-adv-x="956" d="M139 0v1380h174v-268q69 10 148 10q211 0 320.5 -104t109.5 -290.5t-126 -299.5t-335 -113q-54 0 -117 9v-324h-174zM313 469q41 -10 111 -10q137 0 214 71.5t77 194.5t-68.5 189.5t-202.5 66.5q-90 0 -131 -12v-500z" />
<glyph unicode="&#xdf;" horiz-adv-x="1009" d="M129 0v920q0 283 111 408.5t301 125.5q147 0 242.5 -90t95.5 -244q0 -91 -48 -168q-139 -57 -139 -164q0 -35 16 -70.5t95.5 -121t108 -154t28.5 -141.5q0 -144 -95.5 -231.5t-250.5 -87.5q-111 0 -191 36l31 136q70 -33 152.5 -33t132 46t49.5 112t-27 114t-100 123 t-97 133t-24 113q0 165 172 250q16 38 17 92q0 103 -54 156t-133 53q-217 0 -217 -391v-922h-176z" />
<glyph unicode="&#xe0;" horiz-adv-x="874" d="M61 266q0 179 138 272t372 93v24q0 221 -190 222q-118 0 -213 -64l-39 121q120 76 285 76q334 0 334 -381v-398q0 -154 12 -231h-158l-14 115h-4q-90 -133 -252 -133q-121 0 -196 80.5t-75 203.5zM158 1395h185l168 -287h-121zM236 285q0 -85 41 -127.5t113.5 -42.5 t128.5 61.5t56 147.5v184q-340 0 -339 -223z" />
<glyph unicode="&#xe1;" horiz-adv-x="874" d="M61 266q0 179 138 272t372 93v24q0 221 -190 222q-118 0 -213 -64l-39 121q120 76 285 76q334 0 334 -381v-398q0 -154 12 -231h-158l-14 115h-4q-90 -133 -252 -133q-121 0 -196 80.5t-75 203.5zM236 285q0 -85 41 -127.5t113.5 -42.5t128.5 61.5t56 147.5v184 q-340 0 -339 -223zM343 1108l168 287h184l-231 -287h-121z" />
<glyph unicode="&#xe2;" horiz-adv-x="874" d="M61 266q0 179 138 272t372 93v24q0 221 -190 222q-118 0 -213 -64l-39 121q120 76 285 76q334 0 334 -381v-398q0 -154 12 -231h-158l-14 115h-4q-90 -133 -252 -133q-121 0 -196 80.5t-75 203.5zM199 1108l176 287h106l181 -287h-127l-105 184h-4l-104 -184h-123z M236 285q0 -85 41 -127.5t113.5 -42.5t128.5 61.5t56 147.5v184q-340 0 -339 -223z" />
<glyph unicode="&#xe3;" horiz-adv-x="874" d="M61 266q0 179 138 272t372 93v24q0 221 -190 222q-118 0 -213 -64l-39 121q120 76 285 76q334 0 334 -381v-398q0 -154 12 -231h-158l-14 115h-4q-90 -133 -252 -133q-121 0 -196 80.5t-75 203.5zM198 1143q0 94 35.5 144t86 50t120 -38t89.5 -37q48 0 54 81h86 q0 -188 -131 -188q-45 0 -109.5 38t-89.5 38q-45 0 -51 -88h-90zM236 285q0 -85 41 -127.5t113.5 -42.5t128.5 61.5t56 147.5v184q-340 0 -339 -223z" />
<glyph unicode="&#xe4;" horiz-adv-x="874" d="M61 266q0 179 138 272t372 93v24q0 221 -190 222q-118 0 -213 -64l-39 121q120 76 285 76q334 0 334 -381v-398q0 -154 12 -231h-158l-14 115h-4q-90 -133 -252 -133q-121 0 -196 80.5t-75 203.5zM166 1238q0 42 28 70.5t69 28.5t68 -28.5t27 -70.5t-26.5 -70.5 t-68 -28.5t-69.5 28.5t-28 70.5zM236 285q0 -85 41 -127.5t113.5 -42.5t128.5 61.5t56 147.5v184q-340 0 -339 -223zM512 1238q0 42 28 70.5t69 28.5t68 -28.5t27 -70.5t-27 -70.5t-68 -28.5t-69 28.5t-28 70.5z" />
<glyph unicode="&#xe5;" horiz-adv-x="874" d="M61 266q0 179 138 272t372 93v24q0 221 -190 222q-118 0 -213 -64l-39 121q120 76 285 76q334 0 334 -381v-398q0 -154 12 -231h-158l-14 115h-4q-90 -133 -252 -133q-121 0 -196 80.5t-75 203.5zM235 1276q0 79 55 132.5t144.5 53.5t143.5 -52t54 -131.5t-56 -132 t-142 -52.5t-142.5 51.5t-56.5 130.5zM236 285q0 -85 41 -127.5t113.5 -42.5t128.5 61.5t56 147.5v184q-340 0 -339 -223zM337 1278.5q0 -44.5 28 -77t71 -32.5t70.5 31.5t27.5 78t-27 77t-72 30.5t-71.5 -31.5t-26.5 -76z" />
<glyph unicode="&#xe6;" horiz-adv-x="1372" d="M61 268q0 171 138 262t374 91v47q0 90 -50.5 149.5t-154 59.5t-200.5 -64l-39 119q125 78 270 78q218 0 275 -191h6q43 91 121 141t174 50q157 0 244.5 -129t87.5 -320q0 -35 -4 -80h-564q0 -184 72.5 -273t199 -89t222.5 49l31 -125q-110 -61 -250 -61t-230 53t-127 149 h-4q-91 -203 -313 -202q-125 0 -202 80.5t-77 205.5zM231 281q0 -80 43 -123t117.5 -43t129 63.5t54.5 155.5v168q-344 0 -344 -221zM741 606h398q0 120 -47.5 197.5t-137 77.5t-148.5 -78t-65 -197z" />
<glyph unicode="&#xe7;" horiz-adv-x="770" d="M72 501.5q0 215.5 128.5 362t338.5 146.5q108 0 194 -41l-37 -140q-74 37 -159 37q-131 0 -209 -105.5t-78 -271.5t79 -264t208 -98q83 0 165 37l29 -133q-83 -43 -211 -47l-49 -86q62 -9 100.5 -49t38.5 -107t-55 -109.5t-141 -42.5t-146 37l31 88q49 -31 109 -30 q80 0 79 63q0 73 -151 86l80 158q-163 30 -253.5 162t-90.5 347.5z" />
<glyph unicode="&#xe8;" horiz-adv-x="890" d="M72 484.5q0 232.5 111.5 379t285 146.5t264 -127t90.5 -326q0 -55 -6 -88h-573q1 -171 74.5 -258.5t204 -87.5t222.5 43l31 -127q-114 -55 -276 -55q-199 0 -313.5 134t-114.5 366.5zM208 1395h185l168 -287h-121zM246 596h407q0 135 -51.5 209t-140 74t-146.5 -78 t-69 -205z" />
<glyph unicode="&#xe9;" horiz-adv-x="890" d="M72 484.5q0 232.5 111.5 379t285 146.5t264 -127t90.5 -326q0 -55 -6 -88h-573q1 -171 74.5 -258.5t204 -87.5t222.5 43l31 -127q-114 -55 -276 -55q-199 0 -313.5 134t-114.5 366.5zM246 596h407q0 135 -51.5 209t-140 74t-146.5 -78t-69 -205zM389 1108l168 287h184 l-231 -287h-121z" />
<glyph unicode="&#xea;" horiz-adv-x="890" d="M72 484.5q0 232.5 111.5 379t285 146.5t264 -127t90.5 -326q0 -55 -6 -88h-573q1 -171 74.5 -258.5t204 -87.5t222.5 43l31 -127q-114 -55 -276 -55q-199 0 -313.5 134t-114.5 366.5zM240 1108l176 287h106l181 -287h-127l-105 184h-4l-104 -184h-123zM246 596h407 q0 135 -51.5 209t-140 74t-146.5 -78t-69 -205z" />
<glyph unicode="&#xeb;" horiz-adv-x="890" d="M72 484.5q0 232.5 111.5 379t285 146.5t264 -127t90.5 -326q0 -55 -6 -88h-573q1 -171 74.5 -258.5t204 -87.5t222.5 43l31 -127q-114 -55 -276 -55q-199 0 -313.5 134t-114.5 366.5zM210 1238q0 42 28 70.5t69 28.5t68 -28.5t27 -70.5t-26.5 -70.5t-68 -28.5t-69.5 28.5 t-28 70.5zM246 596h407q0 135 -51.5 209t-140 74t-146.5 -78t-69 -205zM556 1238q0 42 28 70.5t69 28.5t68 -28.5t27 -70.5t-27 -70.5t-68 -28.5t-69 28.5t-28 70.5z" />
<glyph unicode="&#xec;" horiz-adv-x="434" d="M-55 1395h185l168 -287h-121zM130 0v991h176v-991h-176z" />
<glyph unicode="&#xed;" horiz-adv-x="434" d="M129 0v991h176v-991h-176zM132 1108l168 287h184l-231 -287h-121z" />
<glyph unicode="&#xee;" horiz-adv-x="434" d="M-13 1108l176 287h106l181 -287h-127l-105 184h-4l-104 -184h-123zM129 0v991h176v-991h-176z" />
<glyph unicode="&#xef;" horiz-adv-x="434" d="M-52 1238q0 42 28 70.5t69 28.5t68 -28.5t27 -70.5t-26.5 -70.5t-68 -28.5t-69.5 28.5t-28 70.5zM129 0v991h176v-991h-176zM294 1238q0 42 28 70.5t69 28.5t68 -28.5t27 -70.5t-27 -70.5t-68 -28.5t-69 28.5t-28 70.5z" />
<glyph unicode="&#xf0;" horiz-adv-x="950" d="M74 485q0 231 111.5 368.5t276.5 137.5q90 0 156 -55l5 4q-68 120 -181 217l-241 -121l-41 80l205 107q-63 55 -181 131l90 100q143 -87 232 -162l225 111l45 -78l-194 -98q153 -151 225 -320t72 -408t-116 -378t-293 -139t-286.5 136t-109.5 367zM250 492 q0 -158 61 -266.5t162.5 -108.5t162 105.5t60.5 299t-60.5 271t-164.5 77.5t-162.5 -110t-58.5 -268z" />
<glyph unicode="&#xf1;" horiz-adv-x="989" d="M121 991h155l9 -141h4q92 160 278 160q131 0 213 -99t82 -284v-627h-176v602q0 260 -180 260q-85 0 -143 -70.5t-58 -183.5v-608h-176v727q0 105 -8 264zM265 1143q0 94 35.5 144t86 50t120 -38t89.5 -37q48 0 54 81h86q0 -188 -131 -188q-45 0 -109.5 38t-89.5 38 q-45 0 -51 -88h-90z" />
<glyph unicode="&#xf2;" horiz-adv-x="960" d="M72 498q0 243 118 377.5t297.5 134.5t289.5 -137t110 -371q0 -163 -53 -280.5t-149 -178.5t-210 -61q-180 0 -291.5 136.5t-111.5 379.5zM217 1395h185l168 -287h-121zM248 497q0 -163 63 -271.5t166 -108.5t166.5 110t63.5 270t-60 268.5t-169 108.5t-169.5 -107 t-60.5 -270z" />
<glyph unicode="&#xf3;" horiz-adv-x="960" d="M72 498q0 243 118 377.5t297.5 134.5t289.5 -137t110 -371q0 -163 -53 -280.5t-149 -178.5t-210 -61q-180 0 -291.5 136.5t-111.5 379.5zM248 497q0 -163 63 -271.5t166 -108.5t166.5 110t63.5 270t-60 268.5t-169 108.5t-169.5 -107t-60.5 -270zM392 1108l168 287h184 l-231 -287h-121z" />
<glyph unicode="&#xf4;" horiz-adv-x="960" d="M72 498q0 243 118 377.5t297.5 134.5t289.5 -137t110 -371q0 -163 -53 -280.5t-149 -178.5t-210 -61q-180 0 -291.5 136.5t-111.5 379.5zM248 497q0 -163 63 -271.5t166 -108.5t166.5 110t63.5 270t-60 268.5t-169 108.5t-169.5 -107t-60.5 -270zM249 1108l176 287h106 l181 -287h-127l-105 184h-4l-104 -184h-123z" />
<glyph unicode="&#xf5;" horiz-adv-x="960" d="M72 498q0 243 118 377.5t297.5 134.5t289.5 -137t110 -371q0 -163 -53 -280.5t-149 -178.5t-210 -61q-180 0 -291.5 136.5t-111.5 379.5zM245 1143q0 94 35.5 144t86 50t120 -38t89.5 -37q48 0 54 81h86q0 -188 -131 -188q-45 0 -109.5 38t-89.5 38q-45 0 -51 -88h-90z M248 497q0 -163 63 -271.5t166 -108.5t166.5 110t63.5 270t-60 268.5t-169 108.5t-169.5 -107t-60.5 -270z" />
<glyph unicode="&#xf6;" horiz-adv-x="960" d="M72 498q0 243 118 377.5t297.5 134.5t289.5 -137t110 -371q0 -163 -53 -280.5t-149 -178.5t-210 -61q-180 0 -291.5 136.5t-111.5 379.5zM210 1238q0 42 28 70.5t69 28.5t68 -28.5t27 -70.5t-26.5 -70.5t-68 -28.5t-69.5 28.5t-28 70.5zM248 497q0 -163 63 -271.5 t166 -108.5t166.5 110t63.5 270t-60 268.5t-169 108.5t-169.5 -107t-60.5 -270zM556 1238q0 42 28 70.5t69 28.5t68 -28.5t27 -70.5t-27 -70.5t-68 -28.5t-69 28.5t-28 70.5z" />
<glyph unicode="&#xf7;" horiz-adv-x="1220" d="M80 485v121h1057v-121h-1057zM506 186q0 47 28.5 77t74 30t74 -30t28.5 -77t-28.5 -76.5t-74 -29.5t-74 29.5t-28.5 76.5zM508 904.5q0 46.5 28 77t74 30.5t74.5 -30t28.5 -77t-28 -76.5t-74 -29.5t-74.5 29.5t-28.5 76z" />
<glyph unicode="&#xf8;" horiz-adv-x="960" d="M72 492q0 240 115.5 379t293.5 139q118 0 209 -64l72 115l84 -51l-78 -136q119 -136 119 -377.5t-118 -378t-290 -136.5q-118 0 -209 63l-71 -119l-80 58l76 127q-123 141 -123 381zM244 513q0 -145 47 -249l4 -2l323 551q-49 61 -137 61q-114 0 -175.5 -108t-61.5 -253z M348 176q50 -59 131 -59q110 0 175 107t65 250.5t-45 244.5h-6z" />
<glyph unicode="&#xf9;" horiz-adv-x="976" d="M123 389v602h176v-573q0 -289 174 -289q81 0 140 64t59 169v629h176v-719q0 -124 8 -272h-156l-10 133h-4q-98 -152 -270 -151q-140 0 -216.5 103.5t-76.5 303.5zM235 1395h185l168 -287h-121z" />
<glyph unicode="&#xfa;" horiz-adv-x="976" d="M123 389v602h176v-573q0 -289 174 -289q81 0 140 64t59 169v629h176v-719q0 -124 8 -272h-156l-10 133h-4q-98 -152 -270 -151q-140 0 -216.5 103.5t-76.5 303.5zM412 1108l168 287h184l-231 -287h-121z" />
<glyph unicode="&#xfb;" horiz-adv-x="976" d="M123 389v602h176v-573q0 -289 174 -289q81 0 140 64t59 169v629h176v-719q0 -124 8 -272h-156l-10 133h-4q-98 -152 -270 -151q-140 0 -216.5 103.5t-76.5 303.5zM257 1108l176 287h106l181 -287h-127l-105 184h-4l-104 -184h-123z" />
<glyph unicode="&#xfc;" horiz-adv-x="976" d="M123 389v602h176v-573q0 -289 174 -289q81 0 140 64t59 169v629h176v-719q0 -124 8 -272h-156l-10 133h-4q-98 -152 -270 -151q-140 0 -216.5 103.5t-76.5 303.5zM224 1238q0 42 28 70.5t69 28.5t68 -28.5t27 -70.5t-26.5 -70.5t-68 -28.5t-69.5 28.5t-28 70.5zM570 1238 q0 42 28 70.5t69 28.5t68 -28.5t27 -70.5t-27 -70.5t-68 -28.5t-69 28.5t-28 70.5z" />
<glyph unicode="&#xfd;" horiz-adv-x="843" d="M23 991h190q177 -584 221 -774h4l205 774h182l-232 -723q-85 -262 -157 -402q-128 -248 -323 -308l-54 149q123 52 202 167t79 163q0 10 -10 41zM356 1108l168 287h184l-231 -287h-121z" />
<glyph unicode="&#xfe;" horiz-adv-x="997" d="M127 -399v1765h176v-514h4q84 158 268 158q153 0 251 -138.5t98 -381t-111.5 -375.5t-268 -133t-237.5 135h-4v-516h-176zM303 377q0 -90 55.5 -171t159 -81t165.5 102t62 266t-59.5 267.5t-167.5 103.5q-66 0 -121 -48.5t-74.5 -115.5t-19.5 -104v-219z" />
<glyph unicode="&#xff;" horiz-adv-x="843" d="M23 991h190q177 -584 221 -774h4l205 774h182l-232 -723q-85 -262 -157 -402q-128 -248 -323 -308l-54 149q123 52 202 167t79 163q0 10 -10 41zM168 1238q0 42 28 70.5t69 28.5t68 -28.5t27 -70.5t-26.5 -70.5t-68 -28.5t-69.5 28.5t-28 70.5zM514 1238q0 42 28 70.5 t69 28.5t68 -28.5t27 -70.5t-27 -70.5t-68 -28.5t-69 28.5t-28 70.5z" />
<glyph unicode="&#x152;" horiz-adv-x="1546" d="M70 693.5q0 328.5 162 517t423 188.5q59 0 140.5 -9.5t91.5 -9.5h565v-149h-465v-436h438v-148h-438v-497h494v-150h-609q-16 0 -97 -9t-132 -9q-271 0 -422 191.5t-151 520zM254 687q0 -267 108.5 -412.5t301.5 -145.5q90 0 147 23v1073q-62 27 -162 26 q-177 0 -286 -148.5t-109 -415.5z" />
<glyph unicode="&#x153;" horiz-adv-x="1511" d="M72 493.5q0 236.5 115 376.5t292 140q108 0 192 -56t122 -159h4q97 215 309 215q162 0 251 -128t89 -325q0 -48 -4 -86h-565q1 -173 72.5 -262.5t188 -89.5t234.5 47l33 -123q-109 -61 -281 -61q-237 0 -331 217h-5q-42 -105 -128.5 -161t-192.5 -56q-175 0 -285 137.5 t-110 374zM250 496q0 -162 63 -270.5t169.5 -108.5t167.5 106t61 273.5t-60 272.5t-171 105t-170.5 -108t-59.5 -270zM874 596h400q0 142 -51.5 212.5t-137.5 70.5t-144 -78.5t-67 -204.5z" />
<glyph unicode="&#x178;" horiz-adv-x="962" d="M20 1380h195q239 -549 272 -657h5q35 115 272 657h192l-389 -792v-588h-176v582zM218 1609.5q0 42.5 27.5 71.5t68 29t67.5 -28.5t27 -72t-26 -72t-67.5 -28.5t-69 29t-27.5 71.5zM568 1609.5q0 42.5 27 71.5t67.5 29t68.5 -28.5t28 -72t-26.5 -72t-68 -28.5t-69 29 t-27.5 71.5z" />
<glyph unicode="&#x2c6;" horiz-adv-x="614" d="M76 1108l176 287h106l181 -287h-127l-105 184h-4l-104 -184h-123z" />
<glyph unicode="&#x2dc;" horiz-adv-x="614" d="M72 1143q0 94 35.5 144t86 50t120 -38t89.5 -37q48 0 54 81h86q0 -188 -131 -188q-45 0 -109.5 38t-89.5 38q-45 0 -51 -88h-90z" />
<glyph unicode="&#x2000;" horiz-adv-x="876" />
<glyph unicode="&#x2001;" horiz-adv-x="1753" />
<glyph unicode="&#x2002;" horiz-adv-x="876" />
<glyph unicode="&#x2003;" horiz-adv-x="1753" />
<glyph unicode="&#x2004;" horiz-adv-x="584" />
<glyph unicode="&#x2005;" horiz-adv-x="438" />
<glyph unicode="&#x2006;" horiz-adv-x="292" />
<glyph unicode="&#x2007;" horiz-adv-x="292" />
<glyph unicode="&#x2008;" horiz-adv-x="219" />
<glyph unicode="&#x2009;" horiz-adv-x="350" />
<glyph unicode="&#x200a;" horiz-adv-x="97" />
<glyph unicode="&#x2010;" horiz-adv-x="600" d="M61 479v131h478v-131h-478z" />
<glyph unicode="&#x2011;" horiz-adv-x="600" d="M61 479v131h478v-131h-478z" />
<glyph unicode="&#x2012;" horiz-adv-x="600" d="M61 479v131h478v-131h-478z" />
<glyph unicode="&#x2013;" horiz-adv-x="1024" d="M61 465v123h902v-123h-902z" />
<glyph unicode="&#x2014;" horiz-adv-x="2048" d="M61 465v123h1926v-123h-1926z" />
<glyph unicode="&#x2018;" horiz-adv-x="397" d="M57 913q81 281 191 482l108 14q-79 -225 -120 -475z" />
<glyph unicode="&#x2019;" horiz-adv-x="397" d="M53 913q80 226 121 476l178 20q-80 -276 -190 -483z" />
<glyph unicode="&#x201a;" horiz-adv-x="397" d="M41 -242q80 225 121 475l178 21q-80 -280 -190 -481z" />
<glyph unicode="&#x201c;" horiz-adv-x="686" d="M53 913q83 288 193 482l106 14q-83 -245 -121 -475zM346 913q85 295 191 482l108 14q-80 -225 -121 -475z" />
<glyph unicode="&#x201d;" horiz-adv-x="686" d="M51 913q80 226 121 476l178 20q-84 -291 -190 -483zM344 913q83 246 121 476l178 20q-82 -284 -192 -483z" />
<glyph unicode="&#x201e;" horiz-adv-x="688" d="M39 -242q80 225 121 475l178 21q-86 -295 -191 -481zM332 -242q83 245 121 475l178 21q-83 -287 -193 -481z" />
<glyph unicode="&#x2022;" horiz-adv-x="557" d="M72 701.5q0 88.5 60.5 149t147.5 60.5t147 -60.5t60 -148.5t-60 -148t-147.5 -60t-147.5 59.5t-60 148z" />
<glyph unicode="&#x2026;" horiz-adv-x="2048" d="M225 109q0 56 34 92.5t84.5 36.5t83 -35.5t32.5 -92.5t-32.5 -92.5t-83.5 -35.5t-84.5 35.5t-33.5 91.5zM905 109q0 56 34 92.5t84.5 36.5t83 -35.5t32.5 -92.5t-32.5 -92.5t-83.5 -35.5t-84.5 35.5t-33.5 91.5zM1585 109q0 56 33.5 92.5t84.5 36.5t83.5 -35.5 t32.5 -92.5t-32.5 -92.5t-83.5 -35.5t-84.5 35.5t-33.5 91.5z" />
<glyph unicode="&#x202f;" horiz-adv-x="350" />
<glyph unicode="&#x2039;" horiz-adv-x="479" d="M53 516l240 369h141l-241 -369l241 -366h-141z" />
<glyph unicode="&#x203a;" horiz-adv-x="479" d="M43 150l242 366l-242 369h139l242 -369l-240 -366h-141z" />
<glyph unicode="&#x205f;" horiz-adv-x="438" />
<glyph unicode="&#x20ac;" d="M29 512v102h104v76q0 23 2 43h-106v103h118q31 221 156 358q139 158 350 158q127 0 226 -58l-37 -139q-84 49 -168 49q-152 0 -236 -96q-86 -86 -110 -272h454v-103h-469q-4 -24 -4 -82v-37h473v-102h-463q44 -383 354 -383q86 0 189 55l31 -133q-112 -71 -236 -71 q-244 0 -374 159q-113 130 -142 373h-112z" />
<glyph unicode="&#x2122;" horiz-adv-x="1501" d="M33 1278v102h540v-102h-211v-713h-118v713h-211zM608 565l60 815h157l148 -466q8 -28 45 -175h4q9 59 195 641h149l64 -815h-119q-34 518 -34 569l-1 132h-4q-26 -111 -219 -693h-86l-128 411q-28 87 -77 282h-6l-33 -701h-115z" />
<glyph unicode="&#xe000;" horiz-adv-x="993" d="M0 0v993h993v-993h-993z" />
<glyph unicode="&#xfb01;" horiz-adv-x="972" d="M25 858v133h131v60q0 183 105.5 293t295.5 110q135 0 225 -55l-43 -135q-84 47 -186 47q-221 0 -221 -271v-49h512v-991h-176v858h-336v-858h-176v858h-131z" />
<glyph unicode="&#xfb02;" horiz-adv-x="972" d="M25 858v133h131v47q0 184 105.5 300t311.5 116q154 0 273 -59v-1395h-176v1290q-50 25 -140 25t-144 -70t-54 -198v-56h198v-133h-198v-858h-176v858h-131z" />
</font>
</defs>
</svg>
